<svg width="65" height="65" viewBox="0 0 65 65" fill="none" xmlns="http://www.w3.org/2000/svg">
<circle cx="32.5" cy="32.5" r="32.5" fill="#00FFFF"/>
<g clip-path="url(#clip0_503_3)">
<path d="M50.8006 29.7337C45.0088 42 43.1243 42 42 42H30.9231C27.0434 42 24.0706 39.7182 23.3492 36.1846C23.3271 36.0766 21.1338 25.3112 20.5731 22.3039C20.2975 20.8292 19.5969 19.8462 17.0769 19.8462C15.9291 19.8462 15 18.9171 15 17.7692C15 16.6214 15.9291 15.6923 17.0769 15.6923C21.2585 15.6923 23.9502 17.7692 24.6563 21.5409C25.2115 24.5165 27.3978 35.2459 27.42 35.3552C27.8617 37.5236 29.8043 37.8476 30.9231 37.8476H41.4531C42.5843 36.6319 45.1625 31.9477 47.0442 27.96C47.5343 26.9229 48.7735 26.4812 49.8092 26.9686C50.8477 27.4574 51.2908 28.6952 50.8006 29.7337ZM29.5385 43.3846C27.6263 43.3846 26.0769 44.934 26.0769 46.8462C26.0769 48.7583 27.6263 50.3077 29.5385 50.3077C31.4506 50.3077 33 48.7583 33 46.8462C33 44.934 31.4506 43.3846 29.5385 43.3846ZM42 43.3846C40.0878 43.3846 38.5385 44.934 38.5385 46.8462C38.5385 48.7583 40.0878 50.3077 42 50.3077C43.9122 50.3077 45.4615 48.7583 45.4615 46.8462C45.4615 44.934 43.9122 43.3846 42 43.3846ZM35.3026 32.0917C35.4411 32.2039 35.6114 32.2579 35.7817 32.2579C35.952 32.2579 36.1195 32.2039 36.2608 32.0917C36.3992 31.9823 40.1765 28.2979 42.2368 25.2323C42.396 24.9942 42.4112 24.6896 42.2755 24.4376C42.144 24.1869 41.8809 24.0291 41.5971 24.0291H38.5149C38.5149 24.0291 38.2145 18.0877 38.0178 17.8122C37.7326 17.4051 36.5543 17.1282 35.7803 17.1282C35.0035 17.1282 33.8045 17.4051 33.5178 17.8122C33.3226 18.0863 33.0637 24.0291 33.0637 24.0291H29.9414C29.6562 24.0291 29.3945 24.1869 29.2602 24.4376C29.1258 24.6896 29.1411 24.9956 29.2989 25.2323C31.3606 28.2992 35.1655 31.9823 35.3026 32.0917Z" fill="black" fill-opacity="0.85"/>
</g>
<defs>
<clipPath id="clip0_503_3">
<rect width="36" height="36" fill="white" transform="translate(15 15)"/>
</clipPath>
</defs>
</svg>
