<svg width="85" height="32" viewBox="0 0 109 31" fill="none" xmlns="http://www.w3.org/2000/svg">
<path fill="#D9E520" d="M34.7 15.5V14.76H35.83V9.24H34.7V8.5H37.74V9.24H36.61V14.76H37.74V15.5H34.7ZM39.1734 15.5V10.28H39.9134L39.9434 11.37L39.8234 11.42C39.89 11.1933 40.02 10.9867 40.2134 10.8C40.4067 10.6133 40.6367 10.4633 40.9034 10.35C41.1767 10.23 41.4567 10.17 41.7434 10.17C42.13 10.17 42.4534 10.2467 42.7134 10.4C42.9734 10.5533 43.17 10.79 43.3034 11.11C43.4367 11.43 43.5034 11.8367 43.5034 12.33V15.5H42.7434V12.37C42.7434 12.0233 42.6967 11.74 42.6034 11.52C42.5167 11.2933 42.38 11.1267 42.1934 11.02C42.0067 10.9133 41.7767 10.8633 41.5034 10.87C41.2767 10.87 41.0667 10.91 40.8734 10.99C40.68 11.0633 40.5134 11.1667 40.3734 11.3C40.2334 11.4333 40.1234 11.5867 40.0434 11.76C39.9634 11.9333 39.9234 12.12 39.9234 12.32V15.5H39.5534C39.5067 15.5 39.4534 15.5 39.3934 15.5C39.3334 15.5 39.26 15.5 39.1734 15.5ZM45.1351 15.5V10.28H45.8851V15.5H45.1351ZM45.5051 9.15C45.3184 9.15 45.1751 9.10333 45.0751 9.01C44.9817 8.91 44.9351 8.77667 44.9351 8.61C44.9351 8.44333 44.9851 8.31 45.0851 8.21C45.1851 8.11 45.3251 8.06 45.5051 8.06C45.6851 8.06 45.8251 8.11 45.9251 8.21C46.0251 8.30333 46.0751 8.43667 46.0751 8.61C46.0751 8.77 46.0251 8.9 45.9251 9C45.8251 9.1 45.6851 9.15 45.5051 9.15ZM49.723 15.6C49.2296 15.6 48.7896 15.4833 48.403 15.25C48.0163 15.01 47.7096 14.6867 47.483 14.28C47.263 13.8667 47.153 13.4 47.153 12.88C47.153 12.36 47.263 11.8967 47.483 11.49C47.7096 11.0767 48.0163 10.7533 48.403 10.52C48.7896 10.2867 49.233 10.17 49.733 10.17C50.1796 10.17 50.5863 10.26 50.953 10.44C51.3196 10.6133 51.613 10.8567 51.833 11.17L51.393 11.71C51.2663 11.5433 51.113 11.3967 50.933 11.27C50.7596 11.1433 50.5696 11.0467 50.363 10.98C50.163 10.9067 49.963 10.87 49.763 10.87C49.4096 10.87 49.093 10.96 48.813 11.14C48.533 11.3133 48.3096 11.55 48.143 11.85C47.983 12.15 47.903 12.4933 47.903 12.88C47.903 13.2667 47.983 13.6133 48.143 13.92C48.3096 14.22 48.533 14.4567 48.813 14.63C49.093 14.8033 49.4063 14.89 49.753 14.89C49.953 14.89 50.1496 14.86 50.343 14.8C50.5363 14.7333 50.7196 14.64 50.893 14.52C51.0663 14.4 51.2263 14.25 51.373 14.07L51.813 14.61C51.5863 14.91 51.283 15.15 50.903 15.33C50.523 15.51 50.1296 15.6 49.723 15.6ZM52.9866 15.5V10.28H53.7366V15.5H52.9866ZM53.3566 9.15C53.17 9.15 53.0266 9.10333 52.9266 9.01C52.8333 8.91 52.7866 8.77667 52.7866 8.61C52.7866 8.44333 52.8366 8.31 52.9366 8.21C53.0366 8.11 53.1766 8.06 53.3566 8.06C53.5366 8.06 53.6766 8.11 53.7766 8.21C53.8766 8.30333 53.9266 8.43667 53.9266 8.61C53.9266 8.77 53.8766 8.9 53.7766 9C53.6766 9.1 53.5366 9.15 53.3566 9.15ZM57.4145 15.6C56.9612 15.6 56.5512 15.4833 56.1845 15.25C55.8179 15.01 55.5279 14.6867 55.3145 14.28C55.1012 13.8667 54.9945 13.4 54.9945 12.88C54.9945 12.3533 55.1045 11.8867 55.3245 11.48C55.5445 11.0733 55.8379 10.7533 56.2045 10.52C56.5779 10.2867 56.9945 10.17 57.4545 10.17C57.7279 10.17 57.9812 10.21 58.2145 10.29C58.4479 10.37 58.6545 10.4833 58.8345 10.63C59.0212 10.77 59.1745 10.9367 59.2945 11.13C59.4212 11.3167 59.5079 11.52 59.5545 11.74L59.3345 11.63L59.3645 10.28H60.1145V15.5H59.3545V14.22L59.5545 14.09C59.5079 14.29 59.4179 14.4833 59.2845 14.67C59.1512 14.85 58.9879 15.01 58.7945 15.15C58.6079 15.29 58.3945 15.4 58.1545 15.48C57.9212 15.56 57.6745 15.6 57.4145 15.6ZM57.5845 14.88C57.9312 14.88 58.2412 14.7967 58.5145 14.63C58.7879 14.4567 59.0012 14.22 59.1545 13.92C59.3145 13.6133 59.3945 13.2667 59.3945 12.88C59.3945 12.4933 59.3145 12.15 59.1545 11.85C59.0012 11.55 58.7879 11.3133 58.5145 11.14C58.2412 10.9667 57.9312 10.88 57.5845 10.88C57.2312 10.88 56.9179 10.9667 56.6445 11.14C56.3779 11.3133 56.1645 11.55 56.0045 11.85C55.8512 12.15 55.7745 12.4933 55.7745 12.88C55.7745 13.26 55.8512 13.6033 56.0045 13.91C56.1579 14.21 56.3712 14.4467 56.6445 14.62C56.9179 14.7933 57.2312 14.88 57.5845 14.88ZM61.5757 15.5V10.28H62.3257L62.3457 11.67L62.2657 11.48C62.339 11.2467 62.4557 11.03 62.6157 10.83C62.7824 10.63 62.979 10.47 63.2057 10.35C63.4324 10.23 63.6824 10.17 63.9557 10.17C64.069 10.17 64.1757 10.18 64.2757 10.2C64.3757 10.2133 64.459 10.2333 64.5257 10.26L64.3157 11.1C64.229 11.06 64.139 11.0333 64.0457 11.02C63.959 11 63.8757 10.99 63.7957 10.99C63.569 10.99 63.3657 11.03 63.1857 11.11C63.0057 11.19 62.8524 11.3033 62.7257 11.45C62.599 11.59 62.5024 11.7533 62.4357 11.94C62.369 12.1267 62.3357 12.3267 62.3357 12.54V15.5H61.5757ZM70.4489 15.6C70.0956 15.6 69.7622 15.55 69.4489 15.45C69.1356 15.35 68.8489 15.2 68.5889 15C68.3289 14.8 68.0989 14.5533 67.8989 14.26L68.4389 13.66C68.7522 14.1067 69.0722 14.42 69.3989 14.6C69.7322 14.78 70.1056 14.87 70.5189 14.87C70.8189 14.87 71.0922 14.82 71.3389 14.72C71.5856 14.62 71.7789 14.48 71.9189 14.3C72.0589 14.12 72.1289 13.9133 72.1289 13.68C72.1289 13.5267 72.1022 13.39 72.0489 13.27C72.0022 13.15 71.9289 13.0433 71.8289 12.95C71.7289 12.8567 71.6056 12.7733 71.4589 12.7C71.3122 12.6267 71.1422 12.56 70.9489 12.5C70.7622 12.44 70.5522 12.38 70.3189 12.32C69.9789 12.24 69.6789 12.1467 69.4189 12.04C69.1656 11.9267 68.9489 11.79 68.7689 11.63C68.5956 11.47 68.4622 11.2867 68.3689 11.08C68.2822 10.8667 68.2389 10.6167 68.2389 10.33C68.2389 10.0567 68.2956 9.80333 68.4089 9.57C68.5289 9.33667 68.6922 9.13667 68.8989 8.97C69.1056 8.79667 69.3489 8.66333 69.6289 8.57C69.9089 8.47667 70.2089 8.43 70.5289 8.43C70.8889 8.43 71.2089 8.48 71.4889 8.58C71.7756 8.67333 72.0289 8.81333 72.2489 9C72.4689 9.18667 72.6589 9.41 72.8189 9.67L72.2689 10.21C72.1289 9.99 71.9689 9.8 71.7889 9.64C71.6156 9.48 71.4222 9.36 71.2089 9.28C71.0022 9.19333 70.7722 9.15 70.5189 9.15C70.2256 9.15 69.9656 9.2 69.7389 9.3C69.5189 9.4 69.3456 9.54 69.2189 9.72C69.0922 9.89333 69.0289 10.0933 69.0289 10.32C69.0289 10.4867 69.0589 10.6367 69.1189 10.77C69.1789 10.8967 69.2722 11.01 69.3989 11.11C69.5322 11.2033 69.7022 11.29 69.9089 11.37C70.1222 11.4433 70.3756 11.5133 70.6689 11.58C71.0156 11.66 71.3256 11.7567 71.5989 11.87C71.8789 11.9833 72.1156 12.12 72.3089 12.28C72.5089 12.4333 72.6589 12.6133 72.7589 12.82C72.8656 13.0267 72.9189 13.2633 72.9189 13.53C72.9189 13.9433 72.8156 14.3067 72.6089 14.62C72.4022 14.9267 72.1122 15.1667 71.7389 15.34C71.3722 15.5133 70.9422 15.6 70.4489 15.6ZM76.4929 15.6C75.9729 15.6 75.5096 15.4867 75.1029 15.26C74.7029 15.0333 74.3896 14.7167 74.1629 14.31C73.9362 13.9033 73.8229 13.4367 73.8229 12.91C73.8229 12.5033 73.8862 12.1367 74.0129 11.81C74.1396 11.4767 74.3162 11.1867 74.5429 10.94C74.7762 10.6933 75.0529 10.5033 75.3729 10.37C75.6929 10.23 76.0396 10.16 76.4129 10.16C76.7662 10.16 77.0862 10.2233 77.3729 10.35C77.6662 10.4767 77.9162 10.6533 78.1229 10.88C78.3362 11.1 78.4962 11.3633 78.6029 11.67C78.7096 11.9767 78.7562 12.3133 78.7429 12.68L78.7329 13.03H74.3829L74.2729 12.4H78.1629L77.9829 12.57V12.33C77.9696 12.09 77.8996 11.86 77.7729 11.64C77.6462 11.4133 77.4662 11.23 77.2329 11.09C77.0062 10.95 76.7329 10.88 76.4129 10.88C76.0396 10.88 75.7162 10.9567 75.4429 11.11C75.1696 11.2567 74.9596 11.4767 74.8129 11.77C74.6662 12.0633 74.5929 12.4267 74.5929 12.86C74.5929 13.2733 74.6729 13.6333 74.8329 13.94C74.9929 14.24 75.2196 14.4733 75.5129 14.64C75.8129 14.8067 76.1729 14.89 76.5929 14.89C76.8396 14.89 77.0829 14.85 77.3229 14.77C77.5696 14.6833 77.8396 14.5167 78.1329 14.27L78.5229 14.81C78.3696 14.9633 78.1862 15.1 77.9729 15.22C77.7596 15.3333 77.5262 15.4267 77.2729 15.5C77.0196 15.5667 76.7596 15.6 76.4929 15.6ZM81.5181 15.6C81.0715 15.6 80.6715 15.5167 80.3181 15.35C79.9648 15.1833 79.6848 14.9633 79.4781 14.69L80.0081 14.23C80.2015 14.4633 80.4281 14.64 80.6881 14.76C80.9548 14.88 81.2515 14.94 81.5781 14.94C81.7448 14.94 81.8948 14.9233 82.0281 14.89C82.1615 14.85 82.2781 14.7933 82.3781 14.72C82.4781 14.6467 82.5548 14.56 82.6081 14.46C82.6615 14.36 82.6881 14.25 82.6881 14.13C82.6881 13.91 82.5915 13.7267 82.3981 13.58C82.3115 13.52 82.1881 13.46 82.0281 13.4C81.8681 13.3333 81.6748 13.27 81.4481 13.21C81.0748 13.1033 80.7648 12.9967 80.5181 12.89C80.2715 12.7767 80.0781 12.6467 79.9381 12.5C79.8381 12.38 79.7615 12.25 79.7081 12.11C79.6615 11.97 79.6381 11.8167 79.6381 11.65C79.6381 11.4367 79.6815 11.24 79.7681 11.06C79.8615 10.88 79.9881 10.7233 80.1481 10.59C80.3148 10.45 80.5081 10.3467 80.7281 10.28C80.9548 10.2067 81.1981 10.17 81.4581 10.17C81.7048 10.17 81.9481 10.2033 82.1881 10.27C82.4281 10.3367 82.6515 10.4333 82.8581 10.56C83.0648 10.6867 83.2415 10.8367 83.3881 11.01L82.9281 11.51C82.8015 11.3767 82.6615 11.2567 82.5081 11.15C82.3548 11.0433 82.1915 10.96 82.0181 10.9C81.8515 10.84 81.6781 10.81 81.4981 10.81C81.3381 10.81 81.1881 10.83 81.0481 10.87C80.9148 10.91 80.7981 10.9667 80.6981 11.04C80.6048 11.1067 80.5315 11.19 80.4781 11.29C80.4315 11.39 80.4081 11.5 80.4081 11.62C80.4081 11.72 80.4281 11.81 80.4681 11.89C80.5081 11.97 80.5648 12.04 80.6381 12.1C80.7315 12.1733 80.8615 12.2433 81.0281 12.31C81.2015 12.37 81.4148 12.4333 81.6681 12.5C81.9615 12.58 82.2081 12.6633 82.4081 12.75C82.6148 12.83 82.7848 12.9267 82.9181 13.04C83.0981 13.1733 83.2248 13.3267 83.2981 13.5C83.3781 13.6733 83.4181 13.87 83.4181 14.09C83.4181 14.3833 83.3348 14.6433 83.1681 14.87C83.0081 15.0967 82.7848 15.2767 82.4981 15.41C82.2115 15.5367 81.8848 15.6 81.5181 15.6ZM84.7933 15.5V10.28H85.5433V15.5H84.7933ZM85.1633 9.15C84.9766 9.15 84.8333 9.10333 84.7333 9.01C84.6399 8.91 84.5933 8.77667 84.5933 8.61C84.5933 8.44333 84.6433 8.31 84.7433 8.21C84.8433 8.11 84.9833 8.06 85.1633 8.06C85.3433 8.06 85.4833 8.11 85.5833 8.21C85.6833 8.30333 85.7333 8.43667 85.7333 8.61C85.7333 8.77 85.6833 8.9 85.5833 9C85.4833 9.1 85.3433 9.15 85.1633 9.15ZM89.4912 15.6C88.9712 15.6 88.5078 15.4833 88.1012 15.25C87.7012 15.0167 87.3845 14.6933 87.1512 14.28C86.9245 13.8667 86.8112 13.3967 86.8112 12.87C86.8112 12.35 86.9245 11.8867 87.1512 11.48C87.3845 11.0733 87.7012 10.7533 88.1012 10.52C88.5078 10.2867 88.9712 10.17 89.4912 10.17C90.0045 10.17 90.4612 10.2867 90.8612 10.52C91.2678 10.7533 91.5845 11.0733 91.8112 11.48C92.0445 11.8867 92.1612 12.35 92.1612 12.87C92.1612 13.3967 92.0445 13.8667 91.8112 14.28C91.5845 14.6933 91.2678 15.0167 90.8612 15.25C90.4612 15.4833 90.0045 15.6 89.4912 15.6ZM89.4912 14.89C89.8578 14.89 90.1845 14.8033 90.4712 14.63C90.7578 14.45 90.9812 14.21 91.1412 13.91C91.3012 13.6033 91.3812 13.2567 91.3812 12.87C91.3812 12.4833 91.3012 12.14 91.1412 11.84C90.9812 11.54 90.7578 11.3067 90.4712 11.14C90.1845 10.9667 89.8578 10.88 89.4912 10.88C89.1245 10.88 88.7945 10.9667 88.5012 11.14C88.2145 11.3067 87.9878 11.5433 87.8212 11.85C87.6612 12.15 87.5845 12.49 87.5912 12.87C87.5845 13.2567 87.6612 13.6033 87.8212 13.91C87.9878 14.21 88.2145 14.45 88.5012 14.63C88.7945 14.8033 89.1245 14.89 89.4912 14.89ZM88.8612 9.51L88.5912 9.1L90.0112 7.91L90.5012 8.54L88.8612 9.51ZM93.2554 15.5V10.28H93.9954L94.0254 11.37L93.9054 11.42C93.9721 11.1933 94.1021 10.9867 94.2954 10.8C94.4887 10.6133 94.7187 10.4633 94.9854 10.35C95.2587 10.23 95.5387 10.17 95.8254 10.17C96.2121 10.17 96.5354 10.2467 96.7954 10.4C97.0554 10.5533 97.2521 10.79 97.3854 11.11C97.5187 11.43 97.5854 11.8367 97.5854 12.33V15.5H96.8254V12.37C96.8254 12.0233 96.7787 11.74 96.6854 11.52C96.5987 11.2933 96.4621 11.1267 96.2754 11.02C96.0887 10.9133 95.8587 10.8633 95.5854 10.87C95.3587 10.87 95.1487 10.91 94.9554 10.99C94.7621 11.0633 94.5954 11.1667 94.4554 11.3C94.3154 11.4333 94.2054 11.5867 94.1254 11.76C94.0454 11.9333 94.0054 12.12 94.0054 12.32V15.5H93.6354C93.5887 15.5 93.5354 15.5 93.4754 15.5C93.4154 15.5 93.3421 15.5 93.2554 15.5ZM104.13 15.6C103.61 15.6 103.147 15.4833 102.74 15.25C102.34 15.0167 102.023 14.6933 101.79 14.28C101.563 13.8667 101.45 13.3967 101.45 12.87C101.45 12.35 101.563 11.8867 101.79 11.48C102.023 11.0733 102.34 10.7533 102.74 10.52C103.147 10.2867 103.61 10.17 104.13 10.17C104.643 10.17 105.1 10.2867 105.5 10.52C105.907 10.7533 106.223 11.0733 106.45 11.48C106.683 11.8867 106.8 12.35 106.8 12.87C106.8 13.3967 106.683 13.8667 106.45 14.28C106.223 14.6933 105.907 15.0167 105.5 15.25C105.1 15.4833 104.643 15.6 104.13 15.6ZM104.13 14.89C104.497 14.89 104.823 14.8033 105.11 14.63C105.397 14.45 105.62 14.21 105.78 13.91C105.94 13.6033 106.02 13.2567 106.02 12.87C106.02 12.4833 105.94 12.14 105.78 11.84C105.62 11.54 105.397 11.3067 105.11 11.14C104.823 10.9667 104.497 10.88 104.13 10.88C103.763 10.88 103.433 10.9667 103.14 11.14C102.853 11.3067 102.627 11.5433 102.46 11.85C102.3 12.15 102.223 12.49 102.23 12.87C102.223 13.2567 102.3 13.6033 102.46 13.91C102.627 14.21 102.853 14.45 103.14 14.63C103.433 14.8033 103.763 14.89 104.13 14.89Z" />
<path fill="#D9E520" d="M34.7567 26.5V17.4H38.7087C39.2547 17.4 39.753 17.53 40.2037 17.79C40.6543 18.0413 41.0097 18.388 41.2697 18.83C41.5383 19.2633 41.6727 19.753 41.6727 20.299C41.6727 20.819 41.5383 21.3 41.2697 21.742C41.0097 22.1753 40.6543 22.522 40.2037 22.782C39.7617 23.0333 39.2633 23.159 38.7087 23.159H36.4077V26.5H34.7567ZM40.0347 26.5L37.7207 22.392L39.4627 22.067L42.0367 26.513L40.0347 26.5ZM36.4077 21.69H38.7217C38.973 21.69 39.1897 21.6337 39.3717 21.521C39.5623 21.3997 39.7097 21.235 39.8137 21.027C39.9177 20.819 39.9697 20.5893 39.9697 20.338C39.9697 20.052 39.9047 19.805 39.7747 19.597C39.6447 19.389 39.4627 19.2243 39.2287 19.103C38.9947 18.9817 38.726 18.921 38.4227 18.921H36.4077V21.69ZM46.4922 26.63C45.7729 26.63 45.1359 26.4783 44.5812 26.175C44.0352 25.8717 43.6062 25.46 43.2942 24.94C42.9909 24.4113 42.8392 23.809 42.8392 23.133C42.8392 22.5957 42.9259 22.106 43.0992 21.664C43.2725 21.222 43.5109 20.8407 43.8142 20.52C44.1262 20.1907 44.4945 19.9393 44.9192 19.766C45.3525 19.584 45.8249 19.493 46.3362 19.493C46.7869 19.493 47.2072 19.5797 47.5972 19.753C47.9872 19.9263 48.3252 20.1647 48.6112 20.468C48.8972 20.7627 49.1139 21.118 49.2612 21.534C49.4172 21.9413 49.4909 22.3877 49.4822 22.873L49.4692 23.432H43.9182L43.6192 22.34H48.1302L47.9222 22.561V22.275C47.8962 22.0063 47.8095 21.7723 47.6622 21.573C47.5149 21.365 47.3242 21.2047 47.0902 21.092C46.8649 20.9707 46.6135 20.91 46.3362 20.91C45.9115 20.91 45.5519 20.9923 45.2572 21.157C44.9712 21.3217 44.7545 21.56 44.6072 21.872C44.4599 22.1753 44.3862 22.5567 44.3862 23.016C44.3862 23.458 44.4772 23.8437 44.6592 24.173C44.8499 24.5023 45.1142 24.758 45.4522 24.94C45.7989 25.1133 46.2019 25.2 46.6612 25.2C46.9819 25.2 47.2765 25.148 47.5452 25.044C47.8139 24.94 48.1042 24.7537 48.4162 24.485L49.2092 25.59C48.9752 25.8067 48.7065 25.993 48.4032 26.149C48.1085 26.2963 47.7965 26.4133 47.4672 26.5C47.1379 26.5867 46.8129 26.63 46.4922 26.63ZM53.9159 29.49C53.4046 29.49 52.8933 29.412 52.3819 29.256C51.8793 29.1 51.4719 28.8963 51.1599 28.645L51.7319 27.462C51.9139 27.592 52.1176 27.7047 52.3429 27.8C52.5683 27.8953 52.8066 27.969 53.0579 28.021C53.3179 28.073 53.5736 28.099 53.8249 28.099C54.2843 28.099 54.6656 28.0253 54.9689 27.878C55.2809 27.7393 55.5149 27.5227 55.6709 27.228C55.8269 26.942 55.9049 26.5823 55.9049 26.149V24.888L56.1389 24.979C56.0869 25.2477 55.9439 25.5033 55.7099 25.746C55.4759 25.9887 55.1813 26.188 54.8259 26.344C54.4706 26.4913 54.1066 26.565 53.7339 26.565C53.0839 26.565 52.5076 26.4133 52.0049 26.11C51.5109 25.8067 51.1166 25.395 50.8219 24.875C50.5359 24.3463 50.3929 23.7397 50.3929 23.055C50.3929 22.3703 50.5359 21.7637 50.8219 21.235C51.1079 20.6977 51.4979 20.2773 51.9919 19.974C52.4946 19.662 53.0579 19.506 53.6819 19.506C53.9419 19.506 54.1933 19.5363 54.4359 19.597C54.6786 19.6577 54.8996 19.7443 55.0989 19.857C55.3069 19.9697 55.4933 20.0953 55.6579 20.234C55.8226 20.3727 55.9569 20.52 56.0609 20.676C56.1649 20.832 56.2299 20.9837 56.2559 21.131L55.9179 21.235L55.9439 19.649H57.5169V26.032C57.5169 26.5867 57.4346 27.0763 57.2699 27.501C57.1053 27.9257 56.8669 28.2853 56.5549 28.58C56.2429 28.8833 55.8659 29.1087 55.4239 29.256C54.9819 29.412 54.4793 29.49 53.9159 29.49ZM53.9809 25.2C54.3709 25.2 54.7133 25.109 55.0079 24.927C55.3113 24.745 55.5453 24.4937 55.7099 24.173C55.8746 23.8523 55.9569 23.484 55.9569 23.068C55.9569 22.6433 55.8703 22.2707 55.6969 21.95C55.5323 21.6207 55.3026 21.365 55.0079 21.183C54.7133 21.001 54.3709 20.91 53.9809 20.91C53.5909 20.91 53.2486 21.0053 52.9539 21.196C52.6593 21.378 52.4253 21.6337 52.2519 21.963C52.0873 22.2837 52.0049 22.652 52.0049 23.068C52.0049 23.4753 52.0873 23.8437 52.2519 24.173C52.4253 24.4937 52.6593 24.745 52.9539 24.927C53.2486 25.109 53.5909 25.2 53.9809 25.2ZM59.5482 26.5V19.649H61.1472V26.5H59.5482ZM60.3282 18.193C60.0075 18.193 59.7562 18.115 59.5742 17.959C59.4008 17.7943 59.3142 17.5647 59.3142 17.27C59.3142 16.9927 59.4052 16.7673 59.5872 16.594C59.7692 16.4207 60.0162 16.334 60.3282 16.334C60.6575 16.334 60.9088 16.4163 61.0822 16.581C61.2642 16.737 61.3552 16.9667 61.3552 17.27C61.3552 17.5387 61.2642 17.7597 61.0822 17.933C60.9002 18.1063 60.6488 18.193 60.3282 18.193ZM65.4628 26.63C64.8561 26.63 64.3101 26.5303 63.8248 26.331C63.3481 26.123 62.9581 25.8283 62.6548 25.447L63.6948 24.55C63.9548 24.8447 64.2451 25.057 64.5658 25.187C64.8864 25.317 65.2244 25.382 65.5798 25.382C65.7271 25.382 65.8571 25.3647 65.9698 25.33C66.0911 25.2953 66.1951 25.2433 66.2818 25.174C66.3684 25.1047 66.4334 25.0267 66.4768 24.94C66.5288 24.8447 66.5548 24.7407 66.5548 24.628C66.5548 24.42 66.4768 24.2553 66.3208 24.134C66.2341 24.0733 66.0954 24.0083 65.9048 23.939C65.7228 23.8697 65.4844 23.8003 65.1898 23.731C64.7218 23.6097 64.3318 23.471 64.0198 23.315C63.7078 23.1503 63.4651 22.9683 63.2918 22.769C63.1444 22.6043 63.0318 22.418 62.9538 22.21C62.8844 22.002 62.8498 21.7767 62.8498 21.534C62.8498 21.2307 62.9148 20.9577 63.0448 20.715C63.1834 20.4637 63.3698 20.247 63.6038 20.065C63.8378 19.883 64.1108 19.7443 64.4228 19.649C64.7348 19.5537 65.0598 19.506 65.3978 19.506C65.7444 19.506 66.0781 19.5493 66.3988 19.636C66.7281 19.7227 67.0314 19.8483 67.3088 20.013C67.5948 20.169 67.8374 20.3597 68.0368 20.585L67.1528 21.56C66.9881 21.404 66.8061 21.2653 66.6068 21.144C66.4161 21.0227 66.2211 20.9273 66.0218 20.858C65.8224 20.78 65.6361 20.741 65.4628 20.741C65.2981 20.741 65.1508 20.7583 65.0208 20.793C64.8908 20.819 64.7824 20.8623 64.6958 20.923C64.6091 20.9837 64.5398 21.0617 64.4878 21.157C64.4444 21.2437 64.4228 21.3477 64.4228 21.469C64.4314 21.573 64.4574 21.6727 64.5008 21.768C64.5528 21.8547 64.6221 21.9283 64.7088 21.989C64.8041 22.0497 64.9471 22.119 65.1378 22.197C65.3284 22.275 65.5754 22.3487 65.8788 22.418C66.3034 22.5307 66.6588 22.6563 66.9448 22.795C67.2308 22.9337 67.4561 23.094 67.6208 23.276C67.7854 23.432 67.9024 23.614 67.9718 23.822C68.0411 24.03 68.0758 24.2597 68.0758 24.511C68.0758 24.9183 67.9588 25.2823 67.7248 25.603C67.4994 25.9237 67.1874 26.175 66.7888 26.357C66.3988 26.539 65.9568 26.63 65.4628 26.63ZM70.2253 26.5V17.907H71.8243V26.5H70.2253ZM68.8733 21.131V19.649H73.3193V21.131H68.8733ZM74.5371 26.5V19.649H76.1101L76.1361 21.833L75.9151 21.339C76.0104 20.9923 76.1751 20.6803 76.4091 20.403C76.6431 20.1257 76.9117 19.909 77.2151 19.753C77.5271 19.5883 77.8521 19.506 78.1901 19.506C78.3374 19.506 78.4761 19.519 78.6061 19.545C78.7447 19.571 78.8574 19.6013 78.9441 19.636L78.5151 21.391C78.4197 21.339 78.3027 21.2957 78.1641 21.261C78.0254 21.2263 77.8867 21.209 77.7481 21.209C77.5314 21.209 77.3234 21.2523 77.1241 21.339C76.9334 21.417 76.7644 21.5297 76.6171 21.677C76.4697 21.8243 76.3527 21.9977 76.2661 22.197C76.1881 22.3877 76.1491 22.6043 76.1491 22.847V26.5H74.5371ZM82.3038 26.63C81.7404 26.63 81.2291 26.474 80.7698 26.162C80.3104 25.85 79.9421 25.4253 79.6648 24.888C79.3874 24.3507 79.2488 23.7397 79.2488 23.055C79.2488 22.3703 79.3874 21.7593 79.6648 21.222C79.9421 20.6847 80.3191 20.2643 80.7958 19.961C81.2724 19.6577 81.8098 19.506 82.4078 19.506C82.7544 19.506 83.0708 19.558 83.3568 19.662C83.6428 19.7573 83.8941 19.896 84.1108 20.078C84.3274 20.26 84.5051 20.468 84.6438 20.702C84.7911 20.936 84.8908 21.1873 84.9428 21.456L84.5918 21.365V19.649H86.2038V26.5H84.5788V24.862L84.9558 24.797C84.8951 25.031 84.7824 25.2607 84.6178 25.486C84.4618 25.7027 84.2624 25.8977 84.0198 26.071C83.7858 26.2357 83.5214 26.37 83.2268 26.474C82.9408 26.578 82.6331 26.63 82.3038 26.63ZM82.7458 25.213C83.1184 25.213 83.4478 25.122 83.7338 24.94C84.0198 24.758 84.2408 24.5067 84.3968 24.186C84.5614 23.8567 84.6438 23.4797 84.6438 23.055C84.6438 22.639 84.5614 22.2707 84.3968 21.95C84.2408 21.6293 84.0198 21.378 83.7338 21.196C83.4478 21.014 83.1184 20.923 82.7458 20.923C82.3731 20.923 82.0438 21.014 81.7578 21.196C81.4804 21.378 81.2638 21.6293 81.1078 21.95C80.9518 22.2707 80.8738 22.639 80.8738 23.055C80.8738 23.4797 80.9518 23.8567 81.1078 24.186C81.2638 24.5067 81.4804 24.758 81.7578 24.94C82.0438 25.122 82.3731 25.213 82.7458 25.213ZM88.0576 26.5V19.649H89.6306L89.6566 21.833L89.4356 21.339C89.5309 20.9923 89.6956 20.6803 89.9296 20.403C90.1636 20.1257 90.4322 19.909 90.7356 19.753C91.0476 19.5883 91.3726 19.506 91.7106 19.506C91.8579 19.506 91.9966 19.519 92.1266 19.545C92.2652 19.571 92.3779 19.6013 92.4646 19.636L92.0356 21.391C91.9402 21.339 91.8232 21.2957 91.6846 21.261C91.5459 21.2263 91.4072 21.209 91.2686 21.209C91.0519 21.209 90.8439 21.2523 90.6446 21.339C90.4539 21.417 90.2849 21.5297 90.1376 21.677C89.9902 21.8243 89.8732 21.9977 89.7866 22.197C89.7086 22.3877 89.6696 22.6043 89.6696 22.847V26.5H88.0576ZM95.8173 26.63C95.2106 26.63 94.6646 26.5303 94.1793 26.331C93.7026 26.123 93.3126 25.8283 93.0093 25.447L94.0493 24.55C94.3093 24.8447 94.5996 25.057 94.9203 25.187C95.2409 25.317 95.5789 25.382 95.9343 25.382C96.0816 25.382 96.2116 25.3647 96.3243 25.33C96.4456 25.2953 96.5496 25.2433 96.6363 25.174C96.7229 25.1047 96.7879 25.0267 96.8313 24.94C96.8833 24.8447 96.9093 24.7407 96.9093 24.628C96.9093 24.42 96.8313 24.2553 96.6753 24.134C96.5886 24.0733 96.4499 24.0083 96.2593 23.939C96.0773 23.8697 95.8389 23.8003 95.5443 23.731C95.0763 23.6097 94.6863 23.471 94.3743 23.315C94.0623 23.1503 93.8196 22.9683 93.6463 22.769C93.4989 22.6043 93.3863 22.418 93.3083 22.21C93.2389 22.002 93.2043 21.7767 93.2043 21.534C93.2043 21.2307 93.2693 20.9577 93.3993 20.715C93.5379 20.4637 93.7243 20.247 93.9583 20.065C94.1923 19.883 94.4653 19.7443 94.7773 19.649C95.0893 19.5537 95.4143 19.506 95.7523 19.506C96.0989 19.506 96.4326 19.5493 96.7533 19.636C97.0826 19.7227 97.3859 19.8483 97.6633 20.013C97.9493 20.169 98.1919 20.3597 98.3913 20.585L97.5073 21.56C97.3426 21.404 97.1606 21.2653 96.9613 21.144C96.7706 21.0227 96.5756 20.9273 96.3763 20.858C96.1769 20.78 95.9906 20.741 95.8173 20.741C95.6526 20.741 95.5053 20.7583 95.3753 20.793C95.2453 20.819 95.1369 20.8623 95.0503 20.923C94.9636 20.9837 94.8943 21.0617 94.8423 21.157C94.7989 21.2437 94.7773 21.3477 94.7773 21.469C94.7859 21.573 94.8119 21.6727 94.8553 21.768C94.9073 21.8547 94.9766 21.9283 95.0633 21.989C95.1586 22.0497 95.3016 22.119 95.4923 22.197C95.6829 22.275 95.9299 22.3487 96.2333 22.418C96.6579 22.5307 97.0133 22.6563 97.2993 22.795C97.5853 22.9337 97.8106 23.094 97.9753 23.276C98.1399 23.432 98.2569 23.614 98.3263 23.822C98.3956 24.03 98.4303 24.2597 98.4303 24.511C98.4303 24.9183 98.3133 25.2823 98.0793 25.603C97.8539 25.9237 97.5419 26.175 97.1433 26.357C96.7533 26.539 96.3113 26.63 95.8173 26.63ZM103.05 26.63C102.33 26.63 101.693 26.4783 101.139 26.175C100.593 25.8717 100.164 25.46 99.8518 24.94C99.5485 24.4113 99.3968 23.809 99.3968 23.133C99.3968 22.5957 99.4835 22.106 99.6568 21.664C99.8302 21.222 100.068 20.8407 100.372 20.52C100.684 20.1907 101.052 19.9393 101.477 19.766C101.91 19.584 102.382 19.493 102.894 19.493C103.344 19.493 103.765 19.5797 104.155 19.753C104.545 19.9263 104.883 20.1647 105.169 20.468C105.455 20.7627 105.671 21.118 105.819 21.534C105.975 21.9413 106.048 22.3877 106.04 22.873L106.027 23.432H100.476L100.177 22.34H104.688L104.48 22.561V22.275C104.454 22.0063 104.367 21.7723 104.22 21.573C104.072 21.365 103.882 21.2047 103.648 21.092C103.422 20.9707 103.171 20.91 102.894 20.91C102.469 20.91 102.109 20.9923 101.815 21.157C101.529 21.3217 101.312 21.56 101.165 21.872C101.017 22.1753 100.944 22.5567 100.944 23.016C100.944 23.458 101.035 23.8437 101.217 24.173C101.407 24.5023 101.672 24.758 102.01 24.94C102.356 25.1133 102.759 25.2 103.219 25.2C103.539 25.2 103.834 25.148 104.103 25.044C104.371 24.94 104.662 24.7537 104.974 24.485L105.767 25.59C105.533 25.8067 105.264 25.993 104.961 26.149C104.666 26.2963 104.354 26.4133 104.025 26.5C103.695 26.5867 103.37 26.63 103.05 26.63Z"/>
<path d="M25 26.75V24.25C25 22.9239 24.4732 21.6521 23.5355 20.7145C22.5979 19.7768 21.3261 19.25 20 19.25H10C8.67392 19.25 7.40215 19.7768 6.46447 20.7145C5.52678 21.6521 5 22.9239 5 24.25V26.75M20 9.25C20 12.0114 17.7614 14.25 15 14.25C12.2386 14.25 10 12.0114 10 9.25C10 6.48858 12.2386 4.25 15 4.25C17.7614 4.25 20 6.48858 20 9.25Z" stroke="#D9E520" strokeWidth="3" strokeLinecap="round" strokeLinejoin="round"/>
</svg>