<?xml version="1.0" encoding="UTF-8"?>
<svg xmlns="http://www.w3.org/2000/svg" xmlns:xlink="http://www.w3.org/1999/xlink" width="32px" height="32px" viewBox="0 0 32 32" version="1.1">
<g id="surface1">
<path style=" stroke:none;fill-rule:nonzero;fill:rgb(1.176471%,0.392157%,1.568628%);fill-opacity:1;" d="M 31.824219 13.097656 C 26.675781 24 25 24 24 24 L 14.152344 24 C 10.707031 24 8.0625 21.972656 7.421875 18.832031 C 7.402344 18.734375 5.453125 9.164062 4.953125 6.492188 C 4.707031 5.179688 4.085938 4.308594 1.847656 4.308594 C 0.824219 4.308594 0 3.480469 0 2.460938 C 0 1.441406 0.824219 0.617188 1.847656 0.617188 C 5.5625 0.617188 7.957031 2.460938 8.582031 5.8125 C 9.078125 8.460938 11.019531 17.996094 11.039062 18.09375 C 11.433594 20.019531 13.160156 20.308594 14.152344 20.308594 L 23.515625 20.308594 C 24.519531 19.226562 26.8125 15.066406 28.484375 11.519531 C 28.917969 10.597656 30.019531 10.207031 30.941406 10.640625 C 31.863281 11.074219 32.257812 12.171875 31.824219 13.097656 Z M 12.921875 25.230469 C 11.222656 25.230469 9.847656 26.609375 9.847656 28.308594 C 9.847656 30.007812 11.222656 31.382812 12.921875 31.382812 C 14.621094 31.382812 16 30.007812 16 28.308594 C 16 26.609375 14.621094 25.230469 12.921875 25.230469 Z M 24 25.230469 C 22.300781 25.230469 20.921875 26.609375 20.921875 28.308594 C 20.921875 30.007812 22.300781 31.382812 24 31.382812 C 25.699219 31.382812 27.078125 30.007812 27.078125 28.308594 C 27.078125 26.609375 25.699219 25.230469 24 25.230469 Z M 18.046875 15.191406 C 18.167969 15.292969 18.320312 15.339844 18.472656 15.339844 C 18.625 15.339844 18.773438 15.292969 18.898438 15.191406 C 19.023438 15.09375 22.378906 11.820312 24.210938 9.09375 C 24.351562 8.882812 24.367188 8.613281 24.246094 8.390625 C 24.128906 8.167969 23.894531 8.027344 23.640625 8.027344 L 20.902344 8.027344 C 20.902344 8.027344 20.636719 2.746094 20.460938 2.5 C 20.207031 2.136719 19.160156 1.890625 18.472656 1.890625 C 17.78125 1.890625 16.714844 2.136719 16.460938 2.5 C 16.285156 2.742188 16.054688 8.027344 16.054688 8.027344 L 13.28125 8.027344 C 13.027344 8.027344 12.796875 8.167969 12.675781 8.390625 C 12.554688 8.613281 12.570312 8.886719 12.710938 9.09375 C 14.542969 11.820312 17.925781 15.09375 18.046875 15.191406 Z M 18.046875 15.191406 "/>
</g>
</svg>
